<svg width="103" height="13" viewBox="0 0 103 13" fill="none" xmlns="http://www.w3.org/2000/svg">
<path d="M9.232 9.272C9.34933 9.272 9.45333 9.31733 9.544 9.408L10.392 10.328C9.92267 10.9093 9.344 11.3547 8.656 11.664C7.97333 11.9733 7.152 12.128 6.192 12.128C5.33333 12.128 4.56 11.9813 3.872 11.688C3.18933 11.3947 2.60533 10.9867 2.12 10.464C1.63467 9.94133 1.26133 9.31733 1 8.592C0.744 7.86667 0.616 7.07467 0.616 6.216C0.616 5.34667 0.754667 4.552 1.032 3.832C1.30933 3.10667 1.69867 2.48267 2.2 1.96C2.70667 1.43733 3.30933 1.032 4.008 0.743999C4.70667 0.450666 5.48 0.304 6.328 0.304C7.17067 0.304 7.91733 0.442666 8.568 0.719999C9.224 0.997333 9.78133 1.36 10.24 1.808L9.52 2.808C9.47733 2.872 9.42133 2.928 9.352 2.976C9.288 3.024 9.19733 3.048 9.08 3.048C9 3.048 8.91733 3.02667 8.832 2.984C8.74667 2.936 8.65333 2.88 8.552 2.816C8.45067 2.74667 8.33333 2.672 8.2 2.592C8.06667 2.512 7.912 2.44 7.736 2.376C7.56 2.30667 7.35467 2.25067 7.12 2.208C6.89067 2.16 6.624 2.136 6.32 2.136C5.80267 2.136 5.328 2.22933 4.896 2.416C4.46933 2.59733 4.10133 2.864 3.792 3.216C3.48267 3.56267 3.24267 3.98933 3.072 4.496C2.90133 4.99733 2.816 5.57067 2.816 6.216C2.816 6.86667 2.90667 7.44533 3.088 7.952C3.27467 8.45867 3.52533 8.88533 3.84 9.232C4.15467 9.57867 4.52533 9.84533 4.952 10.032C5.37867 10.2133 5.83733 10.304 6.328 10.304C6.62133 10.304 6.88533 10.288 7.12 10.256C7.36 10.224 7.57867 10.1733 7.776 10.104C7.97867 10.0347 8.168 9.94667 8.344 9.84C8.52533 9.728 8.704 9.592 8.88 9.432C8.93333 9.384 8.98933 9.34667 9.048 9.32C9.10667 9.288 9.168 9.272 9.232 9.272ZM13.5301 4.672C13.8501 4.37333 14.2021 4.13067 14.5861 3.944C14.9701 3.75733 15.4208 3.664 15.9381 3.664C16.3861 3.664 16.7835 3.74133 17.1301 3.896C17.4768 4.04533 17.7648 4.25867 17.9941 4.536C18.2288 4.808 18.4048 5.136 18.5221 5.52C18.6448 5.89867 18.7061 6.31733 18.7061 6.776V12H16.7301V6.776C16.7301 6.27467 16.6155 5.888 16.3861 5.616C16.1568 5.33867 15.8075 5.2 15.3381 5.2C14.9968 5.2 14.6768 5.27733 14.3781 5.432C14.0795 5.58667 13.7968 5.79733 13.5301 6.064V12H11.5541V0.112H13.5301V4.672ZM25.8734 6.952C25.8734 6.696 25.836 6.456 25.7614 6.232C25.692 6.00267 25.5854 5.80267 25.4414 5.632C25.2974 5.46133 25.1134 5.328 24.8894 5.232C24.6707 5.13067 24.4147 5.08 24.1214 5.08C23.5507 5.08 23.1 5.24267 22.7694 5.568C22.444 5.89333 22.236 6.35467 22.1454 6.952H25.8734ZM22.1054 8.144C22.1374 8.56533 22.212 8.93067 22.3294 9.24C22.4467 9.544 22.6014 9.79733 22.7934 10C22.9854 10.1973 23.212 10.3467 23.4734 10.448C23.74 10.544 24.0334 10.592 24.3534 10.592C24.6734 10.592 24.948 10.5547 25.1774 10.48C25.412 10.4053 25.6147 10.3227 25.7854 10.232C25.9614 10.1413 26.1134 10.0587 26.2414 9.984C26.3747 9.90933 26.5027 9.872 26.6254 9.872C26.7907 9.872 26.9134 9.93333 26.9934 10.056L27.5614 10.776C27.3427 11.032 27.0974 11.248 26.8254 11.424C26.5534 11.5947 26.268 11.7333 25.9694 11.84C25.676 11.9413 25.3747 12.0133 25.0654 12.056C24.7614 12.0987 24.4654 12.12 24.1774 12.12C23.6067 12.12 23.076 12.0267 22.5854 11.84C22.0947 11.648 21.668 11.368 21.3054 11C20.9427 10.6267 20.6574 10.168 20.4494 9.624C20.2414 9.07467 20.1374 8.44 20.1374 7.72C20.1374 7.16 20.228 6.63467 20.4094 6.144C20.5907 5.648 20.8494 5.21867 21.1854 4.856C21.5267 4.488 21.94 4.19733 22.4254 3.984C22.916 3.77067 23.468 3.664 24.0814 3.664C24.5987 3.664 25.076 3.74667 25.5134 3.912C25.9507 4.07733 26.3267 4.32 26.6414 4.64C26.956 4.95467 27.2014 5.344 27.3774 5.808C27.5587 6.26667 27.6494 6.792 27.6494 7.384C27.6494 7.68267 27.6174 7.88533 27.5534 7.992C27.4894 8.09333 27.3667 8.144 27.1854 8.144H22.1054ZM35.0123 5.528C34.9536 5.60267 34.8949 5.66133 34.8363 5.704C34.7829 5.74667 34.7029 5.768 34.5963 5.768C34.4949 5.768 34.3963 5.73867 34.3003 5.68C34.2043 5.616 34.0896 5.54667 33.9563 5.472C33.8229 5.392 33.6629 5.32267 33.4763 5.264C33.2949 5.2 33.0683 5.168 32.7963 5.168C32.4496 5.168 32.1456 5.232 31.8843 5.36C31.6229 5.48267 31.4043 5.66133 31.2283 5.896C31.0576 6.13067 30.9296 6.416 30.8443 6.752C30.7589 7.08267 30.7163 7.45867 30.7163 7.88C30.7163 8.31733 30.7616 8.70667 30.8523 9.048C30.9483 9.38933 31.0843 9.67733 31.2603 9.912C31.4363 10.1413 31.6496 10.3173 31.9003 10.44C32.1509 10.5573 32.4336 10.616 32.7483 10.616C33.0629 10.616 33.3163 10.5787 33.5083 10.504C33.7056 10.424 33.8709 10.3387 34.0043 10.248C34.1376 10.152 34.2523 10.0667 34.3483 9.992C34.4496 9.912 34.5616 9.872 34.6843 9.872C34.8443 9.872 34.9643 9.93333 35.0443 10.056L35.6123 10.776C35.3936 11.032 35.1563 11.248 34.9003 11.424C34.6443 11.5947 34.3776 11.7333 34.1003 11.84C33.8283 11.9413 33.5456 12.0133 33.2523 12.056C32.9643 12.0987 32.6763 12.12 32.3883 12.12C31.8816 12.12 31.4043 12.0267 30.9563 11.84C30.5083 11.648 30.1163 11.3707 29.7803 11.008C29.4443 10.6453 29.1776 10.2027 28.9803 9.68C28.7883 9.152 28.6923 8.552 28.6923 7.88C28.6923 7.27733 28.7776 6.72 28.9483 6.208C29.1243 5.69067 29.3803 5.24533 29.7163 4.872C30.0523 4.49333 30.4683 4.19733 30.9643 3.984C31.4603 3.77067 32.0309 3.664 32.6762 3.664C33.2896 3.664 33.8256 3.76267 34.2843 3.96C34.7483 4.15733 35.1643 4.44 35.5323 4.808L35.0123 5.528ZM38.827 0.112V6.92H39.195C39.3283 6.92 39.4323 6.904 39.507 6.872C39.587 6.83467 39.667 6.76267 39.747 6.656L41.787 4.136C41.8723 4.024 41.9657 3.93867 42.067 3.88C42.1737 3.82133 42.3097 3.792 42.475 3.792H44.283L41.731 6.84C41.5497 7.08 41.3523 7.264 41.139 7.392C41.251 7.472 41.3497 7.56533 41.435 7.672C41.5257 7.77867 41.611 7.89333 41.691 8.016L44.427 12H42.643C42.4883 12 42.355 11.976 42.243 11.928C42.131 11.8747 42.0377 11.7813 41.963 11.648L39.867 8.536C39.7923 8.41333 39.715 8.33333 39.635 8.296C39.555 8.25867 39.435 8.24 39.275 8.24H38.827V12H36.851V0.112H38.827ZM55.1685 5.528C55.1098 5.60267 55.0512 5.66133 54.9925 5.704C54.9392 5.74667 54.8592 5.768 54.7525 5.768C54.6512 5.768 54.5525 5.73867 54.4565 5.68C54.3605 5.616 54.2458 5.54667 54.1125 5.472C53.9792 5.392 53.8192 5.32267 53.6325 5.264C53.4512 5.2 53.2245 5.168 52.9525 5.168C52.6058 5.168 52.3018 5.232 52.0405 5.36C51.7792 5.48267 51.5605 5.66133 51.3845 5.896C51.2138 6.13067 51.0858 6.416 51.0005 6.752C50.9152 7.08267 50.8725 7.45867 50.8725 7.88C50.8725 8.31733 50.9178 8.70667 51.0085 9.048C51.1045 9.38933 51.2405 9.67733 51.4165 9.912C51.5925 10.1413 51.8058 10.3173 52.0565 10.44C52.3072 10.5573 52.5898 10.616 52.9045 10.616C53.2192 10.616 53.4725 10.5787 53.6645 10.504C53.8618 10.424 54.0272 10.3387 54.1605 10.248C54.2938 10.152 54.4085 10.0667 54.5045 9.992C54.6058 9.912 54.7178 9.872 54.8405 9.872C55.0005 9.872 55.1205 9.93333 55.2005 10.056L55.7685 10.776C55.5498 11.032 55.3125 11.248 55.0565 11.424C54.8005 11.5947 54.5338 11.7333 54.2565 11.84C53.9845 11.9413 53.7018 12.0133 53.4085 12.056C53.1205 12.0987 52.8325 12.12 52.5445 12.12C52.0378 12.12 51.5605 12.0267 51.1125 11.84C50.6645 11.648 50.2725 11.3707 49.9365 11.008C49.6005 10.6453 49.3338 10.2027 49.1365 9.68C48.9445 9.152 48.8485 8.552 48.8485 7.88C48.8485 7.27733 48.9338 6.72 49.1045 6.208C49.2805 5.69067 49.5365 5.24533 49.8725 4.872C50.2085 4.49333 50.6245 4.19733 51.1205 3.984C51.6165 3.77067 52.1872 3.664 52.8325 3.664C53.4458 3.664 53.9818 3.76267 54.4405 3.96C54.9045 4.15733 55.3205 4.44 55.6885 4.808L55.1685 5.528ZM60.4986 3.664C61.1066 3.664 61.6586 3.76267 62.1546 3.96C62.656 4.15733 63.0826 4.43733 63.4346 4.8C63.792 5.16267 64.0666 5.60533 64.2586 6.128C64.4506 6.65067 64.5466 7.23467 64.5466 7.88C64.5466 8.53067 64.4506 9.11733 64.2586 9.64C64.0666 10.1627 63.792 10.608 63.4346 10.976C63.0826 11.344 62.656 11.6267 62.1546 11.824C61.6586 12.0213 61.1066 12.12 60.4986 12.12C59.8853 12.12 59.328 12.0213 58.8266 11.824C58.3253 11.6267 57.896 11.344 57.5386 10.976C57.1866 10.608 56.912 10.1627 56.7146 9.64C56.5226 9.11733 56.4266 8.53067 56.4266 7.88C56.4266 7.23467 56.5226 6.65067 56.7146 6.128C56.912 5.60533 57.1866 5.16267 57.5386 4.8C57.896 4.43733 58.3253 4.15733 58.8266 3.96C59.328 3.76267 59.8853 3.664 60.4986 3.664ZM60.4986 10.6C61.1813 10.6 61.6853 10.3707 62.0106 9.912C62.3413 9.45333 62.5066 8.78133 62.5066 7.896C62.5066 7.01067 62.3413 6.336 62.0106 5.872C61.6853 5.408 61.1813 5.176 60.4986 5.176C59.8053 5.176 59.2906 5.41067 58.9546 5.88C58.624 6.344 58.4586 7.016 58.4586 7.896C58.4586 8.776 58.624 9.448 58.9546 9.912C59.2906 10.3707 59.8053 10.6 60.4986 10.6ZM73.1261 3.792V12H71.9181C71.6568 12 71.4915 11.88 71.4221 11.64L71.2861 10.984C70.9501 11.3253 70.5795 11.6027 70.1741 11.816C69.7688 12.024 69.2915 12.128 68.7421 12.128C68.2941 12.128 67.8968 12.0533 67.5501 11.904C67.2088 11.7493 66.9208 11.5333 66.6861 11.256C66.4515 10.9787 66.2728 10.6507 66.1501 10.272C66.0328 9.888 65.9741 9.46667 65.9741 9.008V3.792H67.9501V9.008C67.9501 9.50933 68.0648 9.89867 68.2941 10.176C68.5288 10.448 68.8781 10.584 69.3421 10.584C69.6835 10.584 70.0035 10.5093 70.3021 10.36C70.6008 10.2053 70.8835 9.99467 71.1501 9.728V3.792H73.1261ZM76.9494 5.216C77.2054 4.72533 77.5094 4.34133 77.8614 4.064C78.2134 3.78133 78.6294 3.64 79.1094 3.64C79.488 3.64 79.792 3.72267 80.0214 3.888L79.8934 5.368C79.8667 5.464 79.8267 5.53333 79.7734 5.576C79.7254 5.61333 79.6587 5.632 79.5734 5.632C79.4934 5.632 79.3734 5.61867 79.2134 5.592C79.0587 5.56533 78.9067 5.552 78.7574 5.552C78.5387 5.552 78.344 5.584 78.1734 5.648C78.0027 5.712 77.848 5.80533 77.7094 5.928C77.576 6.04533 77.456 6.18933 77.3494 6.36C77.248 6.53067 77.152 6.72533 77.0614 6.944V12H75.0854V3.792H76.2454C76.448 3.792 76.5894 3.82933 76.6694 3.904C76.7494 3.97333 76.8027 4.10133 76.8294 4.288L76.9494 5.216ZM86.0309 5.392C85.9775 5.47733 85.9215 5.53867 85.8629 5.576C85.8042 5.608 85.7295 5.624 85.6389 5.624C85.5429 5.624 85.4389 5.59733 85.3269 5.544C85.2202 5.49067 85.0949 5.432 84.9509 5.368C84.8069 5.29867 84.6415 5.23733 84.4549 5.184C84.2735 5.13067 84.0575 5.104 83.8069 5.104C83.4175 5.104 83.1109 5.18667 82.8869 5.352C82.6682 5.51733 82.5589 5.73333 82.5589 6C82.5589 6.176 82.6149 6.32533 82.7269 6.448C82.8442 6.56533 82.9962 6.66933 83.1829 6.76C83.3749 6.85067 83.5909 6.93333 83.8309 7.008C84.0709 7.07733 84.3135 7.15467 84.5589 7.24C84.8095 7.32533 85.0549 7.424 85.2949 7.536C85.5349 7.64267 85.7482 7.78133 85.9349 7.952C86.1269 8.11733 86.2789 8.31733 86.3909 8.552C86.5082 8.78667 86.5669 9.06933 86.5669 9.4C86.5669 9.79467 86.4949 10.16 86.3509 10.496C86.2122 10.8267 86.0042 11.1147 85.7269 11.36C85.4495 11.6 85.1055 11.7893 84.6949 11.928C84.2895 12.0613 83.8202 12.128 83.2869 12.128C83.0042 12.128 82.7269 12.1013 82.4549 12.048C82.1882 12 81.9295 11.9307 81.6789 11.84C81.4335 11.7493 81.2042 11.6427 80.9909 11.52C80.7829 11.3973 80.5989 11.264 80.4389 11.12L80.8949 10.368C80.9535 10.2773 81.0229 10.208 81.1029 10.16C81.1829 10.112 81.2842 10.088 81.4069 10.088C81.5295 10.088 81.6442 10.1227 81.7509 10.192C81.8629 10.2613 81.9909 10.336 82.1349 10.416C82.2789 10.496 82.4469 10.5707 82.6389 10.64C82.8362 10.7093 83.0842 10.744 83.3829 10.744C83.6175 10.744 83.8175 10.7173 83.9829 10.664C84.1535 10.6053 84.2922 10.5307 84.3989 10.44C84.5109 10.3493 84.5909 10.2453 84.6389 10.128C84.6922 10.0053 84.7189 9.88 84.7189 9.752C84.7189 9.56 84.6602 9.40267 84.5429 9.28C84.4309 9.15733 84.2789 9.05067 84.0869 8.96C83.9002 8.86933 83.6842 8.78933 83.4389 8.72C83.1989 8.64533 82.9509 8.56533 82.6949 8.48C82.4442 8.39467 82.1962 8.296 81.9509 8.184C81.7109 8.06667 81.4949 7.92 81.3029 7.744C81.1162 7.568 80.9642 7.352 80.8469 7.096C80.7349 6.84 80.6789 6.53067 80.6789 6.168C80.6789 5.832 80.7455 5.512 80.8789 5.208C81.0122 4.904 81.2069 4.64 81.4629 4.416C81.7242 4.18667 82.0469 4.00533 82.4309 3.872C82.8202 3.73333 83.2682 3.664 83.7749 3.664C84.3402 3.664 84.8549 3.75733 85.3189 3.944C85.7829 4.13067 86.1695 4.376 86.4789 4.68L86.0309 5.392ZM93.3421 6.952C93.3421 6.696 93.3048 6.456 93.2301 6.232C93.1608 6.00267 93.0541 5.80267 92.9101 5.632C92.7661 5.46133 92.5821 5.328 92.3581 5.232C92.1395 5.13067 91.8835 5.08 91.5901 5.08C91.0195 5.08 90.5688 5.24267 90.2381 5.568C89.9128 5.89333 89.7048 6.35467 89.6141 6.952H93.3421ZM89.5741 8.144C89.6061 8.56533 89.6808 8.93067 89.7981 9.24C89.9155 9.544 90.0701 9.79733 90.2621 10C90.4541 10.1973 90.6808 10.3467 90.9421 10.448C91.2088 10.544 91.5021 10.592 91.8221 10.592C92.1421 10.592 92.4168 10.5547 92.6461 10.48C92.8808 10.4053 93.0835 10.3227 93.2541 10.232C93.4301 10.1413 93.5821 10.0587 93.7101 9.984C93.8435 9.90933 93.9715 9.872 94.0941 9.872C94.2595 9.872 94.3821 9.93333 94.4621 10.056L95.0301 10.776C94.8115 11.032 94.5661 11.248 94.2941 11.424C94.0221 11.5947 93.7368 11.7333 93.4381 11.84C93.1448 11.9413 92.8435 12.0133 92.5341 12.056C92.2301 12.0987 91.9341 12.12 91.6461 12.12C91.0755 12.12 90.5448 12.0267 90.0541 11.84C89.5635 11.648 89.1368 11.368 88.7741 11C88.4115 10.6267 88.1261 10.168 87.9181 9.624C87.7101 9.07467 87.6061 8.44 87.6061 7.72C87.6061 7.16 87.6968 6.63467 87.8781 6.144C88.0595 5.648 88.3181 5.21867 88.6541 4.856C88.9955 4.488 89.4088 4.19733 89.8941 3.984C90.3848 3.77067 90.9368 3.664 91.5501 3.664C92.0675 3.664 92.5448 3.74667 92.9821 3.912C93.4195 4.07733 93.7955 4.32 94.1101 4.64C94.4248 4.95467 94.6701 5.344 94.8461 5.808C95.0275 6.26667 95.1181 6.792 95.1181 7.384C95.1181 7.68267 95.0861 7.88533 95.0221 7.992C94.9581 8.09333 94.8355 8.144 94.6541 8.144H89.5741ZM101.609 5.392C101.556 5.47733 101.5 5.53867 101.441 5.576C101.382 5.608 101.308 5.624 101.217 5.624C101.121 5.624 101.017 5.59733 100.905 5.544C100.798 5.49067 100.673 5.432 100.529 5.368C100.385 5.29867 100.22 5.23733 100.033 5.184C99.8517 5.13067 99.6357 5.104 99.385 5.104C98.9957 5.104 98.689 5.18667 98.465 5.352C98.2463 5.51733 98.137 5.73333 98.137 6C98.137 6.176 98.193 6.32533 98.305 6.448C98.4223 6.56533 98.5743 6.66933 98.761 6.76C98.953 6.85067 99.169 6.93333 99.409 7.008C99.649 7.07733 99.8917 7.15467 100.137 7.24C100.388 7.32533 100.633 7.424 100.873 7.536C101.113 7.64267 101.326 7.78133 101.513 7.952C101.705 8.11733 101.857 8.31733 101.969 8.552C102.086 8.78667 102.145 9.06933 102.145 9.4C102.145 9.79467 102.073 10.16 101.929 10.496C101.79 10.8267 101.582 11.1147 101.305 11.36C101.028 11.6 100.684 11.7893 100.273 11.928C99.8677 12.0613 99.3983 12.128 98.865 12.128C98.5823 12.128 98.305 12.1013 98.033 12.048C97.7663 12 97.5077 11.9307 97.257 11.84C97.0117 11.7493 96.7823 11.6427 96.569 11.52C96.361 11.3973 96.177 11.264 96.017 11.12L96.473 10.368C96.5317 10.2773 96.601 10.208 96.681 10.16C96.761 10.112 96.8623 10.088 96.985 10.088C97.1077 10.088 97.2223 10.1227 97.329 10.192C97.441 10.2613 97.569 10.336 97.713 10.416C97.857 10.496 98.025 10.5707 98.217 10.64C98.4143 10.7093 98.6623 10.744 98.961 10.744C99.1957 10.744 99.3957 10.7173 99.561 10.664C99.7317 10.6053 99.8703 10.5307 99.977 10.44C100.089 10.3493 100.169 10.2453 100.217 10.128C100.27 10.0053 100.297 9.88 100.297 9.752C100.297 9.56 100.238 9.40267 100.121 9.28C100.009 9.15733 99.857 9.05067 99.665 8.96C99.4783 8.86933 99.2623 8.78933 99.017 8.72C98.777 8.64533 98.529 8.56533 98.273 8.48C98.0223 8.39467 97.7743 8.296 97.529 8.184C97.289 8.06667 97.073 7.92 96.881 7.744C96.6943 7.568 96.5423 7.352 96.425 7.096C96.313 6.84 96.257 6.53067 96.257 6.168C96.257 5.832 96.3237 5.512 96.457 5.208C96.5903 4.904 96.785 4.64 97.041 4.416C97.3023 4.18667 97.625 4.00533 98.009 3.872C98.3983 3.73333 98.8463 3.664 99.353 3.664C99.9183 3.664 100.433 3.75733 100.897 3.944C101.361 4.13067 101.748 4.376 102.057 4.68L101.609 5.392Z" fill="#1E212C"/>
</svg>
